<svg width="980" height="307" viewBox="0 0 980 307" fill="none" xmlns="http://www.w3.org/2000/svg">
<path d="M132.934 217.032C116.311 213.615 106.781 198.068 103.74 182.468C102.844 177.864 102.631 173.295 102.383 168.63C101.842 158.475 103.997 148.364 103.997 138.209C103.997 134.34 103.766 130.4 102.667 126.664C101.426 122.44 98.4822 118.297 95.3881 115.242C93.4997 113.383 91.2123 111.488 89.7672 109.257C87.8434 106.3 89.3683 101.077 91.301 98.394C93.3401 95.5608 96.647 94.1265 99.9451 93.3209C107.224 91.5501 117.464 91.32 123.865 95.7202C130.062 99.9876 131.019 108.54 131.259 115.437C131.551 123.76 130.337 132.038 129.583 140.307C128.528 151.843 127.118 163.725 128.439 175.305C129.22 182.114 131.507 191.463 139.938 191.702C147.811 191.923 152.501 182.131 155.099 176.129C159.23 166.576 162.138 155.969 163.379 145.681C165.011 132.117 166.092 118.483 166.615 104.831C166.979 95.552 171.926 89.7617 182.902 89.7617C189.79 89.7617 196.839 91.8866 198.505 99.3236C199.418 103.405 199.028 107.974 198.94 112.117C198.452 134.959 194.941 161.29 184.258 181.813C174.506 200.565 156.872 221.964 132.926 217.041L132.934 217.032Z" fill="#D93C00"/>
<path d="M342.782 196.772C343.208 196.826 343.644 196.808 344.115 196.737C345.608 196.488 346.932 195.724 348.23 194.95C350.675 193.51 351.866 192.826 355.457 192.826C358.15 192.826 360.434 195.981 361.643 198.301C362.416 199.786 362.647 201.741 362.647 203.519C362.647 207.972 358.541 210.994 354.719 213.483C349.252 217.029 341.866 218.789 335.448 217.101C329.013 215.412 324.4 210.292 320.045 205.59C305.147 189.199 292.614 170.684 281.37 151.778C277.255 143.903 273.682 135.814 284.375 130.73C288.055 128.677 292.526 127.957 296.143 130.464C298.25 132.526 299.112 133.708 300.294 135.779C303.121 140.996 306.045 146.241 309.192 151.352C313.378 158.231 317.805 164.969 322.151 171.644C326.791 178.702 331.369 185.848 336.728 192.408C338.311 194.257 340.266 196.523 342.782 196.79V196.772Z" fill="#D93C00"/>
<path d="M342.178 129.587C337.644 127.489 332.089 130.494 329.174 134.707C325.263 140.36 321.947 146.28 317.858 151.826C313.236 158.102 308.214 164.11 302.632 169.568C289.131 182.759 275.122 194.696 270.145 196.438C273.469 189.416 275.478 179.621 275.478 169.764C275.478 141.347 263.398 128.867 243.506 128.867C230.733 128.867 220.449 132.92 213.542 141.845C207.116 150.591 200.876 160.386 200.876 175.097C200.876 202.5 213.24 217.753 234.804 217.753C238.128 217.753 248.732 217.344 251.061 217.255C269.851 216.58 292.446 207.602 311.094 191.203C324.187 179.577 348.382 150.626 350.08 142.2C350.968 135.089 346.933 131.783 342.178 129.578V129.587ZM240.412 198.216C234.617 198.216 225.737 190.43 225.737 171.541C225.737 154.671 231.488 148.422 239.95 148.422C247.745 148.422 250.608 155 250.608 171.541C250.608 186.581 247.052 198.216 240.412 198.216Z" fill="#D93C00"/>
<path d="M436.357 141.803C446.203 141.447 457.458 142.159 467.469 141.803C467.812 126.145 467.469 112.42 467.469 101.287C467.469 94.1571 470.175 89.7725 482.104 89.7725C491.085 89.7725 494.909 93.1785 494.909 99.444C494.909 113.208 494.96 127.887 494.96 141.803H495.824C503.255 141.803 505.885 143.353 505.885 153.775C505.885 162.658 505.148 165.2 497.043 165.365H494.972C494.972 178.074 494.807 191.114 494.807 204.522C494.807 212.35 490.78 216.862 480.262 216.862C469.743 216.862 465.627 213.392 465.627 204.522V165.747C453.736 165.747 446.19 167.234 436.357 167.589V204.433C436.357 212.604 430.869 216.862 419.893 216.862C410.747 216.862 407.088 213.825 407.088 204.433V101.274C407.088 94.4748 411.28 89.7598 423.552 89.7598C434.782 89.7598 436.357 93.9029 436.357 99.4313V141.79V141.803Z" fill="#D93C00"/>
<path d="M537.646 191.09C540.618 195.563 545.662 196.389 551.76 196.389C569.545 196.389 582.998 185.434 587.457 179.804C590.582 175.661 595.524 174.505 599.157 177.974C602.46 181.291 601.304 185.599 598.497 190.569C593.047 200.177 576.252 217.562 548.228 217.562C524.497 217.562 509.418 200.609 509.418 173.437C509.418 146.265 525.475 129.312 546.081 129.312C560.754 129.312 569.405 138.335 569.405 152.264C569.405 171.149 555.609 183.973 537.646 191.102V191.09ZM534.114 175.204C544.328 169.396 549.994 163.079 549.994 155.784C549.994 151.641 547.847 148.718 544.696 148.718C538.929 148.718 533.885 155.937 533.885 171.01C533.885 172.497 533.949 173.882 534.114 175.191V175.204Z" fill="#D93C00"/>
<path d="M618.618 129.712C624.779 129.712 629.277 131.542 632.77 134.058C633.596 127.386 636.95 124.209 645.283 124.209C653.121 124.209 658.127 127.297 657.631 134.796C656.806 147.809 655.865 168.436 655.865 182.454C655.865 193.295 656.59 197.425 660.413 197.425C668.734 197.425 675.074 187.588 679.558 180.078C682.226 175.235 686.393 174.231 690.051 175.731C694.04 177.561 695.374 181.577 692.872 187.906C687.701 200.247 673.257 217.76 654.087 217.76C644.928 217.76 638.08 214.938 634.752 208.266C629.581 213.439 623.001 217.76 613.511 217.76C595.357 217.76 583.518 203.055 583.518 171.868C583.518 143.183 598.444 129.712 618.593 129.712H618.605H618.618ZM620.613 196.256C624.779 196.256 628.273 194.261 631.106 191.579C630.953 189.253 630.953 186.737 630.953 184.081C630.953 173.736 631.284 162.895 631.627 153.389C629.632 151.559 626.787 150.542 623.141 150.542C614.324 150.542 608.315 157.214 608.315 171.728C608.315 190.575 612.978 196.243 620.651 196.243H620.613V196.256Z" fill="#D93C00"/>
<path d="M699.975 182.331C702.147 193.006 706.772 198.217 714.089 198.217C725.078 198.217 730.782 191.278 739.115 177.934C742.113 172.761 746.954 173.257 750.269 176.104C753.763 178.772 753.941 183.78 750.269 190.122C742.952 202.97 731.125 217.636 710.646 217.636C688.656 217.636 675.711 202.322 675.711 160.128C675.711 111.25 683.638 92.3135 705.285 92.3135C718.116 92.3135 724.697 103.307 724.697 122.319C724.697 149.161 716.808 165.809 699.988 182.331H699.975ZM698.628 158.362C704.129 148.525 708.791 137.939 708.791 124.086C708.791 115.914 707.585 111.733 705.26 111.733C701.258 111.733 698.781 119.002 698.628 158.362Z" fill="#D93C00"/>
<path d="M781.136 148.902C777.465 148.902 771.418 148.724 765.257 148.902C765.104 158.078 765.257 169.236 765.257 178.908C765.257 192.404 769.779 196.56 777.605 196.56C789.267 196.56 795.339 190.384 803.495 177.37C806.989 171.867 811.816 172.197 815.157 174.701C818.485 177.37 818.828 182.542 815.487 188.719C808.5 201.059 795.733 217.733 774.073 217.733C754.751 217.733 739.697 209.892 739.697 181.373C739.697 171.524 740.37 160.505 740.548 150.656H737.016C731.02 151.151 728.708 148.902 728.2 140.069C727.704 132.723 730.969 129.978 736.14 129.482C737.143 129.33 738.782 129.482 740.548 129.482C740.548 121.539 740.37 115.414 740.548 110.063C740.7 104.891 745.502 101.243 754.662 101.243C765.155 101.243 765.244 105.653 765.244 110.953V129.482H782.89C789.229 129.66 789.953 130.804 789.953 138.302C789.953 145.305 789.127 148.889 781.136 148.889V148.902Z" fill="#D93C00"/>
<path d="M871.156 186.844C871.156 192.017 871.194 195.664 874.688 195.664C877.356 195.664 879.731 194.571 881.751 193.898C884.749 192.728 888.7 191.813 890.034 197.66C891.698 205.005 888.942 209.542 885.283 211.55C881.789 213.393 876.403 216.85 869.391 216.85C853.549 216.85 846.435 206.721 846.435 190.377V160.371C846.435 152.365 844.707 149.785 839.372 149.785C834.531 149.785 829.412 153 825.245 156.838C825.093 171.009 825.245 185.116 825.245 200.964C825.245 212.478 822.704 216.85 812.884 216.85C803.064 216.85 800.523 210.305 800.523 200.964V103.893C800.676 95.3906 805.973 90.1037 814.65 89.7733C823.987 89.4428 827.011 95.2127 827.011 103.893C827.011 112.573 826.299 123.554 826.147 137.228C831.978 131.052 839.041 128.599 848.201 128.599C862.2 128.599 871.156 136.224 871.156 155.072V186.844Z" fill="#D93C00"/>
</svg>
